<svg xmlns="http://www.w3.org/2000/svg" width="16" height="17" viewBox="0 0 16 17" fill="none">
  <path d="M13.3538 6.85375L8.35375 11.8537C8.30732 11.9002 8.25217 11.9371 8.19147 11.9623C8.13077 11.9874 8.06571 12.0004 8 12.0004C7.9343 12.0004 7.86923 11.9874 7.80853 11.9623C7.74783 11.9371 7.69269 11.9002 7.64625 11.8537L2.64625 6.85375C2.55243 6.75993 2.49973 6.63268 2.49973 6.5C2.49973 6.36732 2.55243 6.24007 2.64625 6.14625C2.74007 6.05243 2.86732 5.99972 3 5.99972C3.13269 5.99972 3.25993 6.05243 3.35375 6.14625L8 10.7931L12.6463 6.14625C12.6927 6.09979 12.7479 6.06294 12.8086 6.0378C12.8693 6.01266 12.9343 5.99972 13 5.99972C13.0657 5.99972 13.1308 6.01266 13.1915 6.0378C13.2521 6.06294 13.3073 6.09979 13.3538 6.14625C13.4002 6.1927 13.4371 6.24785 13.4622 6.30855C13.4873 6.36925 13.5003 6.4343 13.5003 6.5C13.5003 6.5657 13.4873 6.63075 13.4622 6.69145C13.4371 6.75214 13.4002 6.80729 13.3538 6.85375Z" fill="#C4BBD3"/>
</svg>