<svg width="158" height="61" viewBox="0 0 158 61" fill="none" xmlns="http://www.w3.org/2000/svg">
<path d="M10.9174 40.7231C9.67787 40.0066 8.71543 38.9873 8.02933 37.6661C7.34288 36.3449 7 34.804 7 33.0421C7 31.2803 7.34273 29.7393 8.02933 28.4182C8.71528 27.097 9.67787 26.0783 10.9174 25.3611C12.1564 24.6445 13.575 24.2858 15.1727 24.2858C16.299 24.2858 17.3436 24.5061 18.3066 24.9464C19.2692 25.3871 20.0165 25.9757 20.5494 26.7131V19.8H24.6358V41.5529H20.5494V39.3713C20.0165 40.1086 19.2743 40.6977 18.322 41.1378C17.3695 41.5783 16.3297 41.7986 15.2035 41.7986C13.5851 41.7986 12.1566 41.4406 10.9174 40.7231ZM19.2435 36.8365C20.1139 35.8639 20.5493 34.5988 20.5493 33.042C20.5493 31.4852 20.1139 30.2153 19.2435 29.2323C18.3727 28.2492 17.2411 27.7575 15.8485 27.7575C14.4558 27.7575 13.3186 28.2492 12.4381 29.2323C11.5573 30.2154 11.1169 31.4857 11.1169 33.042C11.1169 34.5983 11.5571 35.8639 12.4381 36.8365C13.3186 37.8096 14.4553 38.2962 15.8485 38.2962C17.2416 38.2962 18.3727 37.8096 19.2435 36.8365Z" fill="white"/>
<path d="M30.9148 40.6929C29.6138 39.9555 28.6105 38.9218 27.9039 37.5899C27.1971 36.2586 26.8438 34.7431 26.8438 33.0428C26.8438 31.3634 27.2124 29.8582 27.9499 28.5264C28.6872 27.1951 29.7012 26.1558 30.9916 25.4078C32.282 24.6604 33.7362 24.2864 35.3543 24.2864C36.9928 24.2864 38.4368 24.6397 39.6865 25.3465C40.9356 26.0532 41.8988 27.0208 42.5745 28.2499C43.2507 29.4787 43.5882 30.8719 43.5882 32.4282C43.5882 32.8996 43.5574 33.3807 43.4963 33.8722H30.8687C31.0118 35.3061 31.4986 36.4176 32.3282 37.2058C33.1577 37.9945 34.2073 38.3888 35.4774 38.3888C36.5014 38.3888 37.341 38.1736 37.9967 37.7434C38.6521 37.3134 39.0722 36.7295 39.2564 35.9922H43.4351C43.107 37.6927 42.2368 39.0854 40.8233 40.1708C39.41 41.2567 37.6281 41.7992 35.4774 41.7992C33.7362 41.7992 32.2154 41.4302 30.9148 40.6929ZM39.2563 30.892C39.2357 29.8474 38.8669 29.0131 38.1502 28.3881C37.433 27.7635 36.5013 27.451 35.3543 27.451C34.2276 27.451 33.2958 27.7429 32.5584 28.3267C31.821 28.9104 31.3189 29.766 31.0529 30.8922L39.2563 30.892Z" fill="white"/>
<path d="M48.8941 40.7231C47.6545 40.0066 46.6919 38.9873 46.0058 37.6661C45.3196 36.3449 44.9766 34.804 44.9766 33.0421C44.9766 31.2803 45.3191 29.7393 46.0058 28.4182C46.6919 27.097 47.6545 26.0783 48.8941 25.3611C50.1331 24.6445 51.5517 24.2858 53.1492 24.2858C54.2754 24.2858 55.32 24.5061 56.2831 24.9464C57.2457 25.3871 57.993 25.9757 58.526 26.7131V19.8H62.6126V41.5529H58.526V39.3713C57.993 40.1086 57.2507 40.6977 56.2985 41.1378C55.3459 41.5783 54.3062 41.7986 53.18 41.7986C51.5616 41.7986 50.1331 41.4406 48.8941 40.7231ZM57.2204 36.8365C58.0905 35.8639 58.526 34.5988 58.526 33.042C58.526 31.4852 58.0905 30.2153 57.2204 29.2323C56.3492 28.2492 55.2176 27.7575 53.8249 27.7575C52.4322 27.7575 51.2951 28.2492 50.4145 29.2323C49.534 30.2154 49.0935 31.4857 49.0935 33.042C49.0935 34.5983 49.5335 35.8639 50.4145 36.8365C51.2951 37.8096 52.4317 38.2962 53.8249 38.2962C55.2181 38.2962 56.3492 37.8096 57.2204 36.8365Z" fill="white"/>
<path d="M66.6212 40.4629C65.5661 39.5719 65.0391 38.3791 65.0391 36.8835C65.0391 35.2858 65.6228 34.0214 66.7902 33.089C67.9577 32.1573 69.7805 31.558 72.259 31.2916L76.0687 30.8616V30.5235C76.0687 29.5609 75.7509 28.8083 75.1165 28.2654C74.4816 27.7229 73.6418 27.4512 72.5971 27.4512C71.5933 27.4512 70.7634 27.7176 70.1081 28.25C69.4523 28.783 69.0739 29.5203 68.9715 30.462H65.0391C65.1818 29.2744 65.5964 28.2144 66.2831 27.2821C66.9692 26.3503 67.8602 25.6182 68.9561 25.0852C70.0514 24.5528 71.2651 24.2864 72.5971 24.2864C74.85 24.2864 76.6678 24.8754 78.0505 26.0532C79.4328 27.2312 80.1244 28.8751 80.1244 30.9843V41.5533H76.0687V39.3104C75.6794 40.0686 75.0136 40.6727 74.0719 41.1232C73.1297 41.5737 72.085 41.7989 70.938 41.7989C69.1147 41.7989 67.6758 41.3539 66.6212 40.4629ZM69.8162 38.1278C70.2772 38.4865 70.8867 38.6655 71.6445 38.6655C72.9755 38.6655 74.046 38.2354 74.855 37.375C75.6639 36.5149 76.0687 35.3474 76.0687 33.8725L72.3202 34.272C71.2552 34.3949 70.4562 34.6666 69.9236 35.0861C69.3911 35.5062 69.1251 36.054 69.1251 36.7299C69.1251 37.3035 69.3553 37.7696 69.8162 38.1278Z" fill="white"/>
<path d="M82.9184 41.0766C82.4674 40.6366 82.2422 40.0886 82.2422 39.4328C82.2422 38.7984 82.4674 38.2609 82.9184 37.82C83.3684 37.3798 83.9213 37.1594 84.5771 37.1594C85.2329 37.1594 85.7853 37.3797 86.2363 37.82C86.6867 38.2609 86.9125 38.7984 86.9125 39.4328C86.9125 40.0886 86.6867 40.6366 86.2363 41.0766C85.7853 41.5176 85.2324 41.7374 84.5771 41.7374C83.9218 41.7374 83.3684 41.5176 82.9184 41.0766Z" fill="white"/>
<path d="M91.0481 40.2921C89.9931 39.3087 89.466 37.9368 89.466 36.175V27.8488H87.0078V24.5305H89.466V20.9973H93.5521V24.5305H97.2086V27.8488H93.5521V35.8063C93.5521 36.585 93.7465 37.1888 94.1358 37.619C94.5246 38.0492 95.0472 38.264 95.703 38.264C96.2146 38.264 96.7884 38.152 97.4234 37.9263V41.3671C96.6656 41.6331 95.9074 41.7664 95.1501 41.7664C93.47 41.7664 92.1032 41.2751 91.0481 40.2921Z" fill="white"/>
<path d="M102.165 40.6929C100.864 39.9555 99.8602 38.9218 99.1537 37.5899C98.4472 36.2586 98.0938 34.7431 98.0938 33.0428C98.0938 31.3634 98.4621 29.8582 99.1999 28.5264C99.9368 27.1951 100.951 26.1558 102.241 25.4078C103.532 24.6604 104.986 24.2864 106.604 24.2864C108.243 24.2864 109.687 24.6397 110.936 25.3465C112.186 26.0532 113.149 27.0208 113.824 28.2499C114.501 29.4787 114.838 30.8719 114.838 32.4282C114.838 32.8996 114.807 33.3807 114.746 33.8722H102.119C102.262 35.3061 102.749 36.4176 103.578 37.2058C104.408 37.9945 105.457 38.3888 106.727 38.3888C107.752 38.3888 108.591 38.1736 109.247 37.7434C109.902 37.3134 110.322 36.7295 110.507 35.9922H114.685C114.357 37.6927 113.486 39.0854 112.073 40.1708C110.66 41.2567 108.878 41.7992 106.727 41.7992C104.986 41.7992 103.465 41.4302 102.165 40.6929ZM110.506 30.892C110.486 29.8474 110.117 29.0131 109.4 28.3881C108.683 27.7635 107.751 27.451 106.604 27.451C105.477 27.451 104.546 27.7429 103.809 28.3267C103.071 28.9104 102.569 29.766 102.303 30.8922L110.506 30.892Z" fill="white"/>
<path d="M120.359 40.6775C119.048 39.9301 118.023 38.891 117.286 37.5591C116.549 36.228 116.18 34.7226 116.18 33.0428C116.18 31.363 116.549 29.8582 117.286 28.5264C118.023 27.1951 119.048 26.1558 120.359 25.4078C121.669 24.6604 123.155 24.2864 124.814 24.2864C127.005 24.2864 128.823 24.8601 130.267 26.0072C131.711 27.1543 132.545 28.7214 132.771 30.7079H128.654C128.49 29.8274 128.055 29.1156 127.349 28.5726C126.641 28.0302 125.797 27.7583 124.814 27.7583C123.954 27.7583 123.18 27.9787 122.494 28.419C121.808 28.8596 121.27 29.4789 120.881 30.2778C120.492 31.0766 120.297 31.9983 120.297 33.0429C120.297 34.0672 120.497 34.9787 120.896 35.7775C121.296 36.5764 121.838 37.1961 122.525 37.6363C123.211 38.0769 123.973 38.2968 124.814 38.2968C125.858 38.2968 126.744 38.0255 127.471 37.4826C128.198 36.9402 128.633 36.2383 128.777 35.3781H132.894C132.771 36.6071 132.361 37.7084 131.665 38.6807C130.968 39.6542 130.026 40.4169 128.838 40.9698C127.65 41.5232 126.308 41.7997 124.814 41.7997C123.155 41.7997 121.669 41.4253 120.359 40.6775Z" fill="white"/>
<path d="M134.898 19.8H138.985V26.836C139.476 26.1192 140.224 25.5148 141.227 25.0232C142.231 24.5315 143.306 24.2858 144.454 24.2858C145.683 24.2858 146.778 24.5422 147.741 25.054C148.704 25.5663 149.462 26.283 150.015 27.2047C150.568 28.1265 150.844 29.1816 150.844 30.3692V41.5529H146.758V31.4138C146.758 30.3491 146.456 29.4936 145.851 28.8484C145.247 28.2031 144.433 27.8804 143.409 27.8804C142.057 27.8804 140.982 28.4028 140.183 29.4473C139.384 30.492 138.985 31.9874 138.985 33.9331V41.5529H134.898V19.8Z" fill="white"/>
</svg>
