<svg xmlns="http://www.w3.org/2000/svg" width="24" height="25" viewBox="0 0 24 25" fill="none">
  <g clip-path="url(#clip0_2459_2191)">
    <path d="M22.5057 2.96383C20.5402 2.06217 18.466 1.41933 16.3352 1.05141C16.3156 1.04773 16.2953 1.05041 16.2774 1.05904C16.2594 1.06768 16.2447 1.08182 16.2354 1.09941C15.9701 1.57309 15.6745 2.19078 15.4674 2.67836C13.1702 2.32945 10.8336 2.32945 8.53641 2.67836C8.30587 2.13811 8.04568 1.61099 7.75705 1.09941C7.74709 1.08244 7.73222 1.06889 7.71441 1.06055C7.69659 1.0522 7.67667 1.04946 7.65726 1.05267C5.52631 1.41899 3.45094 2.0632 1.48673 2.96636C1.47009 2.97334 1.45599 2.98524 1.44631 3.00046C-2.48464 8.87162 -3.56211 14.5988 -3.03285 20.2539C-3.03156 20.268 -3.02743 20.2816 -3.02069 20.294C-3.01396 20.3064 -3.00477 20.3172 -2.99369 20.3259C-0.70536 22.0214 1.85445 23.3156 4.57641 24.1533C4.5956 24.1589 4.61602 24.1585 4.63497 24.1521C4.65392 24.1458 4.6705 24.1339 4.68252 24.1179C5.2661 23.3221 5.78652 22.4809 6.23241 21.5979C6.23838 21.5859 6.24173 21.5727 6.24226 21.5592C6.24278 21.5457 6.24047 21.5323 6.23546 21.5198C6.23046 21.5073 6.22288 21.496 6.21321 21.4866C6.20355 21.4772 6.19201 21.4699 6.17936 21.4653C5.36259 21.1524 4.57191 20.7752 3.81473 20.3373C3.8011 20.3292 3.78966 20.3179 3.78139 20.3044C3.77312 20.2909 3.76827 20.2756 3.76728 20.2598C3.76628 20.244 3.76916 20.2281 3.77567 20.2137C3.78218 20.1992 3.79212 20.1866 3.80462 20.1769C3.96409 20.0576 4.12076 19.9346 4.27452 19.808C4.28797 19.7971 4.30419 19.7902 4.32136 19.7879C4.33854 19.7857 4.35599 19.7883 4.37178 19.7954C9.33347 22.0603 14.7044 22.0603 19.608 19.7954C19.624 19.7882 19.6416 19.7855 19.659 19.7878C19.6764 19.79 19.6929 19.797 19.7065 19.808C19.8581 19.9318 20.0173 20.0569 20.1777 20.1769C20.1903 20.1864 20.2003 20.1989 20.2069 20.2132C20.2135 20.2275 20.2165 20.2432 20.2156 20.259C20.2148 20.2747 20.2103 20.2901 20.2024 20.3037C20.1945 20.3173 20.1834 20.3288 20.1701 20.3373C19.4135 20.7794 18.6227 21.1558 17.8042 21.464C17.7913 21.4687 17.7796 21.4761 17.7698 21.4857C17.76 21.4953 17.7523 21.5068 17.7474 21.5196C17.7428 21.5323 17.7409 21.5458 17.7418 21.5593C17.7426 21.5728 17.7463 21.5859 17.7524 21.5979C18.2072 22.4796 18.7276 23.3196 19.2998 24.1167C19.3117 24.1328 19.3283 24.1448 19.3472 24.1511C19.3662 24.1575 19.3867 24.1578 19.4059 24.152C22.1324 23.3169 24.6964 22.0225 26.9874 20.3247C26.9985 20.3168 27.0079 20.3066 27.0148 20.2949C27.0218 20.2831 27.0262 20.27 27.0278 20.2565C27.6594 13.7171 25.9693 8.03667 22.5448 3.00173C22.5369 2.98468 22.523 2.97117 22.5057 2.96383ZM6.97263 16.8118C5.47957 16.8118 4.24799 15.44 4.24799 13.7563C4.24799 12.0725 5.45684 10.6994 6.97263 10.6994C8.50105 10.6994 9.72126 12.0826 9.69726 13.7563C9.69726 15.4388 8.48968 16.8106 6.97263 16.8106V16.8118ZM17.0463 16.8118C15.552 16.8118 14.3217 15.44 14.3217 13.7563C14.3217 12.0725 15.528 10.7007 17.0463 10.7007C18.5747 10.7007 19.7949 12.0838 19.7709 13.7575C19.7709 15.44 18.576 16.8118 17.0463 16.8118Z" fill="white"/>
  </g>
  <defs>
    <clipPath id="clip0_2459_2191">
      <rect width="30.3158" height="24" fill="white" transform="translate(-3.1579 0.639648)"/>
    </clipPath>
  </defs>
</svg>