<svg xmlns="http://www.w3.org/2000/svg" width="25" height="25" viewBox="0 0 25 25" fill="none">
  <path d="M12.0601 2.747C9.68549 2.74695 7.38839 3.59188 5.57983 5.13061C3.77126 6.66933 2.56927 8.80141 2.18894 11.1453C1.80861 13.4892 2.27477 15.892 3.504 17.9236C4.73323 19.9553 6.64531 21.4832 8.89806 22.234C9.39806 22.322 9.58506 22.022 9.58506 21.759C9.58506 21.522 9.57306 20.734 9.57306 19.897C7.06006 20.359 6.41006 19.284 6.21006 18.722C5.98806 18.1748 5.63628 17.6899 5.18506 17.309C4.83506 17.122 4.33506 16.659 5.17206 16.647C5.49196 16.6815 5.79882 16.7927 6.06657 16.9712C6.33431 17.1496 6.55506 17.39 6.71006 17.672C6.84679 17.9177 7.03066 18.134 7.25112 18.3084C7.47159 18.4829 7.72433 18.6122 7.99484 18.6888C8.26536 18.7655 8.54834 18.788 8.82757 18.7551C9.1068 18.7222 9.37679 18.6345 9.62206 18.497C9.66501 17.9883 9.89182 17.5126 10.2601 17.159C8.03506 16.909 5.71006 16.047 5.71006 12.222C5.69671 11.2281 6.06334 10.2666 6.73506 9.534C6.42998 8.67012 6.46574 7.72243 6.83506 6.884C6.83506 6.884 7.67206 6.622 9.58506 7.909C11.2214 7.4591 12.9488 7.4591 14.5851 7.909C16.4971 6.609 17.3351 6.884 17.3351 6.884C17.7044 7.72243 17.7401 8.67012 17.4351 9.534C18.1094 10.265 18.4765 11.2276 18.4601 12.222C18.4601 16.059 16.1221 16.909 13.8981 17.159C14.1364 17.401 14.32 17.6915 14.4363 18.0107C14.5526 18.3299 14.5989 18.6703 14.5721 19.009C14.5721 20.347 14.5601 21.422 14.5601 21.759C14.5601 22.022 14.7471 22.334 15.2471 22.234C17.4957 21.4769 19.402 19.9454 20.6259 17.9128C21.8497 15.8801 22.3114 13.4787 21.9284 11.1372C21.5455 8.79566 20.3429 6.66643 18.5353 5.12958C16.7276 3.59273 14.4327 2.74829 12.0601 2.747Z" fill="white"/>
</svg>