<svg xmlns="http://www.w3.org/2000/svg" width="87" height="25" viewBox="0 0 87 25" fill="none">
    <path fill-rule="evenodd" clip-rule="evenodd" d="M47.9855 5.3C47.9855 7.95098 45.8365 10.1 43.1855 10.1C40.949 10.1 39.0696 8.5703 38.5368 6.5H31.8352C30.662 6.5 29.6607 7.34822 29.4678 8.50544L29.2706 9.68912C29.0832 10.813 28.5147 11.7911 27.7108 12.5C28.5147 13.2089 29.0832 14.187 29.2706 15.3109L29.4678 16.4946C29.6607 17.6518 30.662 18.5 31.8352 18.5H33.7368C34.2696 16.4297 36.149 14.9 38.3855 14.9C41.0365 14.9 43.1855 17.049 43.1855 19.7C43.1855 22.351 41.0365 24.5 38.3855 24.5C36.149 24.5 34.2696 22.9703 33.7368 20.9H31.8352C29.4888 20.9 27.4863 19.2036 27.1005 16.8891L26.9032 15.7054C26.7104 14.5482 25.7091 13.7 24.5359 13.7H22.5782C21.979 15.6681 20.1495 17.1 17.9855 17.1C15.8216 17.1 13.9921 15.6681 13.3929 13.7H10.5782C9.97901 15.6681 8.14949 17.1 5.98554 17.1C3.33458 17.1 1.18555 14.9509 1.18555 12.3C1.18555 9.64904 3.33458 7.50002 5.98554 7.50002C8.29361 7.50002 10.2212 9.12902 10.6812 11.3H13.2899C13.7499 9.12902 15.6775 7.50002 17.9855 7.50002C20.2936 7.50002 22.2212 9.12902 22.6812 11.3H24.5359C25.7091 11.3 26.7104 10.4518 26.9032 9.29456L27.1005 8.11088C27.4863 5.79638 29.4888 4.1 31.8352 4.1H38.5368C39.0696 2.02973 40.949 0.5 43.1855 0.5C45.8365 0.5 47.9855 2.64903 47.9855 5.3ZM45.5855 5.3C45.5855 6.62546 44.511 7.7 43.1855 7.7C41.8601 7.7 40.7855 6.62546 40.7855 5.3C40.7855 3.97452 41.8601 2.9 43.1855 2.9C44.511 2.9 45.5855 3.97452 45.5855 5.3ZM5.98554 14.7C7.31105 14.7 8.38553 13.6255 8.38553 12.3C8.38553 10.9745 7.31105 9.90002 5.98554 9.90002C4.66006 9.90002 3.58554 10.9745 3.58554 12.3C3.58554 13.6255 4.66006 14.7 5.98554 14.7ZM17.9855 14.7C19.311 14.7 20.3855 13.6255 20.3855 12.3C20.3855 10.9745 19.311 9.90002 17.9855 9.90002C16.6601 9.90002 15.5855 10.9745 15.5855 12.3C15.5855 13.6255 16.6601 14.7 17.9855 14.7ZM38.3855 22.1C39.711 22.1 40.7855 21.0255 40.7855 19.7C40.7855 18.3745 39.711 17.3 38.3855 17.3C37.0601 17.3 35.9855 18.3745 35.9855 19.7C35.9855 21.0255 37.0601 22.1 38.3855 22.1Z" fill="#7A7A7A" />
</svg>