<svg xmlns="http://www.w3.org/2000/svg" width="140" height="31" viewBox="0 0 140 31" fill="none">
  <g clip-path="url(#clip0_2467_1664)">
    <path d="M29.8601 1.2334H15.6719V15.0139H29.8601V1.2334Z" fill="#F8F3F4"/>
    <path d="M0 1.23389H14.1883V15.0145H0V1.23389Z" fill="#F8F3F4"/>
    <path d="M49.3474 17.9362L48.5141 20.2292H48.4447C48.3057 19.7122 48.0511 18.9254 47.6345 17.9811L43.1675 7.07815H38.793V24.4555H41.6862V13.7324C41.6862 13.0579 41.6862 12.2936 41.663 11.3494C41.6466 11.0141 41.6184 10.7355 41.5952 10.5056L41.595 10.5034C41.5857 10.4106 41.5771 10.3254 41.5705 10.2479H41.6399C41.7788 10.9223 41.9407 11.4169 42.0564 11.7316L47.4263 24.4105H49.4631L54.7865 11.6192C54.875 11.3957 54.9635 11.0014 55.052 10.6071C55.0792 10.4858 55.1066 10.3643 55.1337 10.2479H55.2031C55.1337 11.5293 55.0874 12.6758 55.0643 13.3727V24.3881H58.1425V7.0332H53.9302L49.3474 17.9362Z" fill="#F8F3F4"/>
    <path d="M61.0586 11.9336H64.0676V24.3878H61.0586V11.9336Z" fill="#F8F3F4"/>
    <path d="M62.5867 6.67334C62.0774 6.67334 61.6608 6.85314 61.3135 7.1679C60.9663 7.48255 60.7812 7.88721 60.7812 8.38177C60.7812 8.85392 60.9663 9.25858 61.3135 9.57323C61.6608 9.88799 62.0774 10.0454 62.5867 10.0454C63.0958 10.0454 63.5354 9.86546 63.8596 9.57323C64.2067 9.25858 64.3919 8.85392 64.3919 8.38177C64.3919 7.90974 64.2067 7.50508 63.8596 7.1679C63.5586 6.85314 63.119 6.67334 62.5867 6.67334Z" fill="#F8F3F4"/>
    <path d="M74.7394 11.8215C74.1839 11.7091 73.6052 11.6416 73.0496 11.6416C71.684 11.6416 70.4342 11.934 69.3927 12.5184C68.3512 13.1029 67.518 13.9123 66.9855 14.9239C66.43 15.9579 66.1523 17.1494 66.1523 18.5208C66.1523 19.7122 66.43 20.7687 66.9624 21.7354C67.4948 22.6796 68.2354 23.4438 69.2307 23.9609C70.1796 24.478 71.2907 24.7478 72.5405 24.7478C73.9755 24.7478 75.2023 24.4555 76.1743 23.916L76.1975 23.8934V21.1959L76.0818 21.2858C75.642 21.6005 75.1327 21.8702 74.6236 22.0276C74.0912 22.2075 73.6052 22.2974 73.1886 22.2974C71.985 22.2974 71.036 21.9603 70.3648 21.2183C69.6704 20.4989 69.3233 19.5099 69.3233 18.2734C69.3233 16.9921 69.6704 15.9805 70.388 15.2385C71.1054 14.4967 72.0545 14.1145 73.2117 14.1145C74.1839 14.1145 75.1791 14.4292 76.0818 15.0587L76.1975 15.1486V12.2936L76.1743 12.2711L76.1401 12.2574C75.7552 12.1034 75.3237 11.9307 74.7394 11.8215Z" fill="#F8F3F4"/>
    <path d="M84.6676 11.7314C83.9269 11.7314 83.2325 11.9562 82.6308 12.4283C82.1215 12.833 81.7743 13.4174 81.4736 14.1142H81.4503V11.9337H78.4414V24.3879H81.4503V18.0259C81.4503 16.9468 81.6818 16.0476 82.1911 15.3957C82.7002 14.7213 83.3482 14.384 84.1352 14.384C84.3204 14.384 84.5055 14.414 84.7113 14.4474C84.8142 14.464 84.9222 14.4815 85.0379 14.4965C85.3619 14.5864 85.5934 14.6763 85.7555 14.7887L85.8711 14.8786V11.9562L85.8017 11.9337C85.5934 11.7988 85.1768 11.7314 84.6676 11.7314Z" fill="#F8F3F4"/>
    <path fill-rule="evenodd" clip-rule="evenodd" d="M92.86 11.6641C90.7537 11.6641 89.0641 12.271 87.8837 13.4624C86.6802 14.654 86.1016 16.295 86.1016 18.3632C86.1016 20.2965 86.7032 21.8701 87.8606 23.0167C89.0178 24.1407 90.5918 24.7252 92.5591 24.7252C94.6191 24.7252 96.2624 24.1183 97.4432 22.9043C98.6468 21.6903 99.2254 20.0718 99.2254 18.071C99.2254 16.0926 98.6692 14.5192 97.5354 13.3725C96.4475 12.226 94.8504 11.6641 92.86 11.6641ZM95.2671 21.2407C94.7117 21.9376 93.8321 22.2748 92.7443 22.2748C91.6563 22.2748 90.7769 21.9376 90.1519 21.1957C89.527 20.4989 89.2261 19.4872 89.2261 18.2058C89.2261 16.8795 89.5503 15.8679 90.1519 15.1485C90.7769 14.4292 91.6332 14.0694 92.7211 14.0694C93.7858 14.0694 94.6191 14.4067 95.2208 15.1035C95.8226 15.8004 96.1467 16.8121 96.1467 18.1385C96.1004 19.4872 95.8458 20.5439 95.2671 21.2407Z" fill="#F8F3F4"/>
    <path d="M105.939 17.1044C104.99 16.7223 104.388 16.4301 104.11 16.1828C103.878 15.9579 103.763 15.6432 103.763 15.2385C103.763 14.9013 103.902 14.5641 104.249 14.3393C104.597 14.1145 104.99 14.0022 105.568 14.0022C106.078 14.0022 106.61 14.0921 107.12 14.227C107.628 14.3618 108.091 14.5641 108.462 14.8338L108.577 14.9239V12.1812L108.508 12.1587C108.161 12.0239 107.698 11.8889 107.143 11.7766C106.587 11.6866 106.078 11.6416 105.662 11.6416C104.226 11.6416 103.046 11.9789 102.12 12.7207C101.194 13.4176 100.754 14.3618 100.754 15.4634C100.754 16.0478 100.847 16.5649 101.055 16.9921C101.264 17.4191 101.564 17.8237 101.981 18.161C102.397 18.4757 102.999 18.8354 103.833 19.1727C104.527 19.4649 105.06 19.6897 105.383 19.8696C105.707 20.0494 105.916 20.2517 106.078 20.409C106.194 20.5889 106.263 20.8136 106.263 21.1059C106.263 21.9377 105.615 22.3424 104.296 22.3424C103.786 22.3424 103.254 22.2525 102.629 22.0502C102.004 21.8478 101.426 21.5556 100.939 21.2183L100.824 21.1284V23.9835L100.893 24.0059C101.333 24.2082 101.865 24.3432 102.514 24.5004C103.161 24.6129 103.74 24.7028 104.249 24.7028C105.8 24.7028 107.073 24.3656 107.976 23.6237C108.902 22.9044 109.388 21.9827 109.388 20.7912C109.388 19.9595 109.156 19.2176 108.647 18.6556C107.976 18.1161 107.143 17.554 105.939 17.1044Z" fill="#F8F3F4"/>
    <path fill-rule="evenodd" clip-rule="evenodd" d="M117.324 11.6641C115.219 11.6641 113.528 12.271 112.349 13.4624C111.168 14.654 110.566 16.295 110.566 18.3632C110.566 20.2965 111.168 21.8701 112.326 23.0167C113.483 24.1407 115.057 24.7252 117.023 24.7252C119.084 24.7252 120.728 24.1183 121.907 22.9043C123.111 21.6903 123.69 20.0718 123.69 18.071C123.69 16.0926 123.134 14.5192 122 13.3725C120.912 12.226 119.316 11.6641 117.324 11.6641ZM119.709 21.2407C119.153 21.9376 118.274 22.2748 117.185 22.2748C116.075 22.2748 115.219 21.9376 114.594 21.1957C113.969 20.4989 113.667 19.4872 113.667 18.2058C113.667 16.8795 113.992 15.8679 114.594 15.1485C115.219 14.4292 116.075 14.0694 117.162 14.0694C118.203 14.0694 119.061 14.4067 119.663 15.1035C120.264 15.8004 120.589 16.8121 120.589 18.1385C120.589 19.4872 120.288 20.5439 119.709 21.2407Z" fill="#F8F3F4"/>
    <path d="M139.775 14.3392V11.9338H136.743V8.24705L136.65 8.26947L133.78 9.10132L133.711 9.12374V11.9338H129.174V10.3601C129.174 9.64083 129.36 9.07879 129.683 8.71908C130.007 8.35937 130.493 8.17957 131.095 8.17957C131.511 8.17957 131.951 8.26947 132.437 8.4718L132.553 8.53928V5.99899L132.484 5.97646C132.068 5.84161 131.511 5.75171 130.794 5.75171C129.892 5.75171 129.104 5.95404 128.386 6.29122C127.67 6.67335 127.138 7.19044 126.743 7.88734C126.35 8.5617 126.142 9.32607 126.142 10.2028V11.9338H124.035V14.3167H126.142V24.388H129.174V14.3392H133.711V20.7461C133.711 23.3763 134.983 24.7026 137.53 24.7026C137.946 24.7026 138.386 24.6353 138.803 24.5678C139.243 24.4779 139.566 24.3655 139.751 24.2756L139.775 24.253V21.8477L139.659 21.9376C139.474 22.05 139.312 22.1399 139.034 22.2074C138.803 22.2748 138.594 22.2973 138.433 22.2973C137.83 22.2973 137.414 22.1625 137.113 21.8252C136.836 21.5104 136.697 20.9934 136.697 20.2291V14.3392H139.775Z" fill="#F8F3F4"/>
    <path d="M0 16.4529H14.1883V30.2335H0V16.4529Z" fill="#F8F3F4"/>
    <path d="M29.8601 16.4529H15.6719V30.2335H29.8601V16.4529Z" fill="#F8F3F4"/>
  </g>
  <defs>
    <clipPath id="clip0_2467_1664">
      <rect width="140" height="30" fill="white" transform="translate(0 0.800049)"/>
    </clipPath>
  </defs>
</svg>