<svg xmlns="http://www.w3.org/2000/svg" width="140" height="61" viewBox="0 0 140 61" fill="none">
  <mask id="mask0_2491_658" style="mask-type:luminance" maskUnits="userSpaceOnUse" x="0" y="0" width="140" height="61">
    <path d="M140 0.800049H0V60.8H140V0.800049Z" fill="white"/>
  </mask>
  <g mask="url(#mask0_2491_658)">
    <path fill-rule="evenodd" clip-rule="evenodd" d="M136.205 24.1513V41.2987H140V24.1513H136.205ZM126.404 34.3623C126.415 34.0747 126.492 33.787 126.625 33.5326C126.769 33.2671 126.946 33.0348 127.167 32.8356C127.399 32.6365 127.665 32.4816 127.964 32.371C128.284 32.2604 128.627 32.194 128.97 32.2051C129.712 32.2051 130.265 32.4153 130.641 32.8467C131.006 33.2671 131.194 33.776 131.194 34.3623H126.404ZM133.041 31.2758C132.544 30.7448 131.924 30.3354 131.249 30.0589C130.552 29.7823 129.789 29.6385 128.959 29.6385C128.096 29.6385 127.289 29.7823 126.548 30.0699C125.829 30.3465 125.165 30.7558 124.612 31.2869C124.058 31.8289 123.616 32.4816 123.317 33.1897C122.996 33.9419 122.842 34.7716 122.842 35.7009C122.842 36.6302 123.008 37.5042 123.328 38.2454C123.66 38.9866 124.103 39.6061 124.667 40.115C125.242 40.6349 125.917 41.0221 126.647 41.2766C127.411 41.5421 128.207 41.6748 129.059 41.6748C130.209 41.6748 131.227 41.4646 132.09 41.0553C132.942 40.6571 133.661 40.0486 134.192 39.2742L131.603 37.6369C131.338 37.9909 130.995 38.2786 130.608 38.4887C130.187 38.71 129.701 38.8206 129.103 38.8206C128.771 38.8206 128.45 38.7653 128.141 38.6658C127.842 38.5662 127.554 38.4113 127.3 38.2232C127.057 38.0352 126.846 37.8139 126.68 37.5595C126.525 37.294 126.426 37.0063 126.393 36.6966H134.601C134.612 36.5638 134.623 36.42 134.623 36.2651V35.8115C134.623 34.8491 134.48 33.9862 134.203 33.2228C133.949 32.5038 133.55 31.8511 133.041 31.2869V31.2758ZM104.179 36.7629C104.179 37.482 103.979 38.0352 103.581 38.4556C103.172 38.8759 102.597 39.0751 101.844 39.0751C101.656 39.0751 101.468 39.053 101.269 39.0198C101.081 38.9866 100.904 38.9202 100.749 38.8317C100.594 38.7432 100.473 38.6215 100.373 38.4666C100.273 38.3007 100.218 38.1126 100.229 37.9245C100.229 37.5927 100.34 37.3272 100.55 37.117C100.76 36.9068 101.037 36.7519 101.358 36.6523C101.689 36.5417 102.055 36.4753 102.475 36.4421C102.884 36.3979 103.305 36.3868 103.714 36.3868H104.19V36.774L104.179 36.7629ZM107.309 32.9352C107.121 32.1829 106.823 31.5745 106.413 31.0767C106.004 30.5899 105.473 30.2248 104.809 29.9925C104.145 29.7491 103.349 29.6385 102.386 29.6385C101.457 29.6385 100.539 29.8044 99.665 30.1142C98.8021 30.424 98.0055 30.9107 97.3418 31.5413L99.2224 33.5547C99.5986 33.2118 100.03 32.9463 100.484 32.7361C100.959 32.5148 101.49 32.3931 102.01 32.3931C102.586 32.3931 103.072 32.5259 103.471 32.7914C103.858 33.0569 104.057 33.4662 104.057 34.0304V34.2185C103.216 34.2185 102.375 34.2628 101.535 34.3513C100.672 34.4398 99.8862 34.6278 99.1782 34.8933C98.4812 35.1588 97.906 35.546 97.4524 36.0439C96.9988 36.5417 96.7886 37.2055 96.7886 38.013C96.7886 38.6768 96.9103 39.241 97.1758 39.6946C97.4192 40.126 97.7511 40.5022 98.1604 40.7788C98.5587 41.0553 99.0012 41.2545 99.488 41.3651C99.9526 41.4868 100.417 41.5421 100.893 41.5421C101.546 41.5421 102.187 41.4204 102.785 41.1549C103.371 40.9004 103.802 40.5354 104.09 40.0707H104.156V41.2766H107.564V35.5792C107.564 34.5504 107.475 33.6654 107.287 32.9131L107.309 32.9352ZM91.9431 36.6855C91.8325 37.0395 91.6555 37.3493 91.4342 37.6258C91.2019 37.9024 90.9143 38.1237 90.5934 38.2786C90.2616 38.4445 89.8744 38.533 89.4318 38.533C88.9893 38.533 88.6243 38.4556 88.2924 38.2786C87.9605 38.1126 87.6729 37.8914 87.4405 37.6258C87.2082 37.3493 87.0202 37.0285 86.8985 36.6966C86.7768 36.3536 86.7104 35.9886 86.7104 35.6235C86.7104 35.2584 86.7768 34.9044 86.8985 34.5614C87.0312 34.2074 87.2193 33.8977 87.4405 33.6322C87.6839 33.3667 87.9605 33.1454 88.2924 32.9684C88.6243 32.8025 89.0115 32.725 89.4318 32.725C89.8522 32.725 90.2505 32.8025 90.5824 32.9684C90.9143 33.1343 91.2019 33.3556 91.4232 33.6211C91.6555 33.8866 91.8214 34.1964 91.932 34.5393C92.0427 34.8933 92.109 35.2363 92.098 35.6014C92.098 35.9664 92.0427 36.3204 91.932 36.6855H91.9431ZM94.2552 31.4528C93.7906 30.9107 93.2264 30.4682 92.5737 30.1584C91.9099 29.8376 91.1687 29.6827 90.3501 29.6827C89.5203 29.6827 88.8123 29.8376 88.2371 30.1584C87.6618 30.4793 87.2082 30.8333 86.8985 31.1984H86.8542V24.1403H83.126V41.2876H86.5555V39.8163H86.5998C86.9648 40.3916 87.4848 40.8341 88.1596 41.1438C88.8345 41.4536 89.5535 41.6085 90.3058 41.6085C91.1576 41.6085 91.9099 41.4425 92.5848 41.1106C93.2375 40.7898 93.8127 40.3362 94.2774 39.7831C94.742 39.2189 95.1071 38.5662 95.3283 37.8692C95.5717 37.1391 95.6934 36.3868 95.6934 35.6014C95.6934 34.8159 95.5717 34.0636 95.3173 33.3445C95.085 32.6476 94.7199 32.0059 94.2442 31.4528H94.2552ZM117.974 36.6855C117.863 37.0395 117.686 37.3493 117.465 37.6258C117.233 37.9024 116.945 38.1237 116.624 38.2786C116.292 38.4445 115.905 38.533 115.474 38.533C115.042 38.533 114.666 38.4556 114.334 38.2786C114.002 38.1126 113.715 37.8914 113.482 37.6258C113.25 37.3493 113.062 37.0285 112.94 36.6966C112.819 36.3536 112.752 35.9886 112.752 35.6235C112.752 35.2584 112.819 34.9044 112.94 34.5614C113.073 34.2074 113.261 33.8977 113.482 33.6322C113.715 33.3667 114.002 33.1454 114.334 32.9684C114.666 32.8025 115.053 32.725 115.474 32.725C115.894 32.725 116.292 32.8025 116.624 32.9684C116.956 33.1343 117.244 33.3556 117.465 33.6211C117.686 33.8866 117.863 34.1964 117.974 34.5393C118.085 34.8933 118.151 35.2363 118.14 35.6014C118.14 35.9664 118.085 36.3204 117.974 36.6855ZM120.286 31.4528C119.821 30.9107 119.257 30.4682 118.605 30.1584C117.941 29.8376 117.2 29.6827 116.381 29.6827C115.551 29.6827 114.843 29.8376 114.268 30.1584C113.693 30.4793 113.239 30.8333 112.929 31.1984H112.885V24.1403H109.157V41.2876H112.586V39.8163H112.631C112.996 40.3916 113.516 40.8341 114.19 41.1438C114.865 41.4536 115.584 41.6085 116.337 41.6085C117.188 41.6085 117.941 41.4425 118.616 41.1106C119.268 40.7898 119.844 40.3362 120.308 39.7831C120.773 39.2189 121.138 38.5662 121.359 37.8692C121.603 37.1391 121.724 36.3868 121.724 35.6014C121.724 34.8159 121.603 34.0636 121.348 33.3445C121.116 32.6476 120.751 32.0059 120.275 31.4528H120.286ZM64.9166 34.8601C64.9166 35.3027 64.8613 35.712 64.7618 36.1102C64.6622 36.4974 64.4852 36.8515 64.2418 37.1612C63.9984 37.482 63.6665 37.7365 63.3015 37.9024C62.9143 38.0794 62.4496 38.179 61.9075 38.1679C61.3544 38.1679 60.9008 38.0794 60.5136 37.8914C60.1486 37.7254 59.8277 37.471 59.5844 37.1501C59.341 36.8293 59.164 36.4753 59.0644 36.0992C58.9538 35.6899 58.8985 35.2695 58.8985 34.8491V25.158H55.0375V35.1588C55.0375 36.1324 55.1924 37.0063 55.5132 37.8029C55.8119 38.5773 56.2766 39.2631 56.874 39.8384C57.4603 40.4026 58.1794 40.8451 59.0312 41.166C59.8831 41.4757 60.8345 41.6417 61.8965 41.6417C62.9585 41.6417 63.8989 41.4757 64.7507 41.166C65.6025 40.8451 66.3327 40.4026 66.9411 39.8384C67.5496 39.2631 68.0253 38.5662 68.335 37.8029C68.6669 37.0063 68.8218 36.1213 68.8218 35.1588V25.158H64.9388V34.8491L64.9166 34.8601ZM80.1723 31.2758C79.6966 30.7448 79.1102 30.3354 78.4465 30.0589C77.7827 29.7823 76.7539 29.6385 75.9573 29.6385C75.1608 29.6385 74.143 29.7823 73.4682 30.0589C72.8155 30.3354 72.2181 30.7448 71.7424 31.2758C71.2556 31.8068 70.8906 32.4484 70.614 33.2118C70.3485 33.9641 70.3595 34.827 70.3595 35.8005V41.3098H74.132V35.1146C74.1541 34.6389 74.3532 34.1964 74.6851 33.8756C75.0281 33.5437 75.4816 33.3667 75.9463 33.3667C76.422 33.3667 76.8755 33.5547 77.2074 33.8756C77.5504 34.2074 77.7495 34.6499 77.7606 35.1257V41.3208H81.533V35.8115C81.533 34.838 81.5441 33.9862 81.2785 33.2228C81.013 32.4595 80.6369 31.8289 80.1501 31.2979L80.1723 31.2758ZM43.9415 47.1952H37.3481V29.6164C37.3481 28.7977 37.1711 28.0012 36.8171 27.26C36.4631 26.5298 35.9652 25.8771 35.3347 25.3572C34.7041 24.8372 33.9629 24.4722 33.1774 24.273C32.3919 24.0739 31.5622 24.0628 30.7657 24.2177C31.4848 23.4876 32.3366 22.9012 33.277 22.514C34.2173 22.1158 35.2351 21.9166 36.2529 21.9166C37.2596 21.9166 38.2663 22.1158 39.1956 22.503C40.1249 22.8902 40.9767 23.4544 41.6958 24.1735C42.4149 24.8925 42.9791 25.7333 43.3663 26.6737C43.7535 27.6029 43.9526 28.6097 43.9526 29.6164V47.1952H43.9415ZM26.3627 29.6164V36.2098C26.3627 37.482 26.0529 38.7211 25.4445 39.8384C24.8471 40.9558 23.9842 41.9072 22.9222 42.6041C21.8712 43.3011 20.6543 43.7325 19.3931 43.8542C18.132 43.9759 16.8597 43.7768 15.6871 43.29C14.7467 42.8918 13.8949 42.3165 13.1758 41.5863C13.9723 41.7523 14.8021 41.7302 15.5875 41.531C16.373 41.3319 17.1142 40.9668 17.7448 40.4469C18.3753 39.9269 18.8842 39.2853 19.2272 38.5441C19.5812 37.8139 19.7582 37.0063 19.7582 36.1877V29.5942C19.7582 22.9234 25.1679 17.5136 31.8388 17.5136C34.7704 17.5136 37.4587 18.5535 39.5496 20.2904C38.4876 19.9032 37.3702 19.7151 36.2307 19.7041C30.7657 19.7041 26.3406 24.1292 26.3406 29.5942L26.3627 29.6164ZM14.2821 48.2904C7.61122 48.2904 2.2015 42.8807 2.2015 36.2098V18.6199H8.78388V36.1987C8.78388 41.6638 13.209 46.0889 18.674 46.0889C19.8356 46.0889 20.953 45.8787 21.9818 45.5026C19.8135 47.3058 17.0921 48.2904 14.271 48.2793L14.2821 48.2904ZM31.8609 15.3232C23.9731 15.3232 17.5788 21.7175 17.5788 29.6053V36.1987C17.5788 37.0727 17.2359 37.9135 16.6164 38.533C15.9968 39.1525 15.1561 39.4955 14.2821 39.4955C13.4081 39.4955 12.5674 39.1525 11.9478 38.533C11.3283 37.9135 10.9854 37.0727 10.9854 36.1987V16.4295H0V36.1987C0 44.0865 6.39431 50.4808 14.2821 50.4808C22.1699 50.4808 27.9889 44.6286 28.5089 37.2165C28.5421 36.8846 28.5642 36.5417 28.5642 36.2098V29.6164C28.5642 28.7424 28.9072 27.9016 29.5267 27.2821C30.1462 26.6626 30.987 26.3196 31.8609 26.3196C32.7349 26.3196 33.5757 26.6626 34.1952 27.2821C34.8147 27.9016 35.1576 28.7424 35.1576 29.6164V49.3856H46.143V29.6053C46.143 29.2624 46.1209 28.9305 46.0877 28.5986C45.5678 21.1865 39.4058 15.3343 31.8609 15.3343V15.3232Z" fill="white"/>
  </g>
</svg>