<svg xmlns="http://www.w3.org/2000/svg" width="160" height="61" viewBox="0 0 160 61" fill="none">
  <path fill-rule="evenodd" clip-rule="evenodd" d="M27.9995 47.8C37.3878 47.8 44.9958 40.1886 44.9958 30.8C44.9958 24.0266 41.0359 18.1781 35.3044 15.4456C33.0915 14.3906 30.6146 13.8 27.9995 13.8C18.6112 13.8 11 21.4114 11 30.8C11 40.1886 18.6112 47.8 27.9995 47.8ZM35.3044 15.4456C32.2124 16.0858 29.7217 18.9553 29.7311 22.2192C29.7311 22.3284 29.7404 22.444 29.7528 22.4971C34.928 23.7589 37.2766 26.8822 37.2922 31.2017C37.3047 35.5243 33.8943 40.2593 28.1289 40.278C23.4597 40.2939 18.6001 36.3083 18.5782 29.9056C18.5626 25.6736 20.8488 21.5977 23.7658 19.1803C26.6142 16.8253 30.515 15.3105 34.0505 15.298C34.5064 15.298 35.0139 15.3456 35.3044 15.4456Z" fill="white"/>
  <path d="M55.9782 37.8393L50.7812 25.4368H54.1762L57.418 33.6729L60.5599 25.4368H63.8018L58.7579 37.8393H55.9782Z" fill="white"/>
  <path d="M72.834 31.5736C72.834 31.0582 72.7747 30.5679 72.6528 30.1025C72.5341 29.6371 72.353 29.2373 72.1125 28.9032C71.872 28.5658 71.5816 28.3003 71.238 28.1036C70.8945 27.9037 70.4916 27.8037 70.0293 27.8037C69.5671 27.8037 69.1611 27.9037 68.8207 28.1036C68.4771 28.3003 68.1835 28.5658 67.9462 28.9032C67.7057 29.2373 67.5246 29.6371 67.4059 30.1025C67.2841 30.5679 67.2247 31.0582 67.2247 31.5736C67.2247 32.1076 67.2841 32.6042 67.4059 33.0602C67.5246 33.5162 67.6995 33.916 67.9306 34.2596C68.1617 34.6031 68.4553 34.8748 68.8082 35.0747C69.158 35.2715 69.5671 35.3714 70.0293 35.3714C70.4916 35.3714 70.8945 35.2715 71.238 35.0747C71.5816 34.8748 71.872 34.6031 72.1125 34.2596C72.353 33.916 72.5341 33.5162 72.6528 33.0602C72.7746 32.6042 72.834 32.1076 72.834 31.5736ZM75.9728 31.5871C75.9728 32.3961 75.8479 33.1894 75.6011 33.9702C75.3513 34.751 74.9827 35.4475 74.4924 36.0659C74.0052 36.6843 73.3868 37.1809 72.6403 37.5589C71.8939 37.9368 71.0225 38.1242 70.0294 38.1242C69.0331 38.1242 68.1617 37.9367 67.4184 37.5589C66.6719 37.1809 66.0535 36.6843 65.5632 36.0659C65.076 35.4475 64.7075 34.751 64.4576 33.9702C64.2109 33.1894 64.0859 32.3961 64.0859 31.5871C64.0859 30.7814 64.2109 29.9943 64.4576 29.2197C64.7075 28.4482 65.076 27.758 65.5632 27.149C66.0535 26.5399 66.6719 26.0527 67.4184 25.6842C68.1617 25.3156 69.0331 25.1282 70.0294 25.1282C71.0225 25.1282 71.8908 25.3157 72.6278 25.6842C73.3649 26.0527 73.9833 26.5399 74.4799 27.149C74.9796 27.758 75.3513 28.4482 75.6011 29.2197C75.8479 29.9943 75.9728 30.7814 75.9728 31.5871Z" fill="white"/>
  <path d="M85.5703 28.1666C84.955 27.9261 84.3835 27.8043 83.8525 27.8043C83.3091 27.8043 82.8375 27.9106 82.4471 28.1166C82.0536 28.3226 81.7288 28.6007 81.4727 28.9536C81.2165 29.3066 81.026 29.7032 80.898 30.1436C80.7699 30.5809 80.7043 31.0338 80.7043 31.4991C80.7043 32.0145 80.7605 32.5079 80.873 32.9826C80.9823 33.4543 81.1541 33.8697 81.3852 34.2226C81.6132 34.5755 81.9036 34.8597 82.2535 35.0752C82.6032 35.2876 83.0186 35.3969 83.4965 35.3969C83.89 35.3969 84.2898 35.2877 84.6989 35.0752C85.108 34.8597 85.3985 34.6036 85.5703 34.3132V28.1666ZM85.8264 37.8393L85.6983 36.8899C85.4079 37.2147 85.0237 37.502 84.5427 37.7488C84.0649 37.9986 83.4996 38.1236 82.85 38.1236C81.9974 38.1236 81.2415 37.9425 80.595 37.5832C79.9423 37.2241 79.3957 36.7431 78.9522 36.1434C78.5088 35.5438 78.1683 34.8473 77.9372 34.0571C77.7092 33.27 77.5938 32.4455 77.5938 31.5866C77.5938 30.7808 77.7123 29.9906 77.9497 29.2191C78.1902 28.4477 78.5525 27.7574 79.0397 27.1484C79.53 26.5393 80.1391 26.0521 80.8761 25.6836C81.6101 25.315 82.4752 25.1276 83.4652 25.1276C84.1149 25.1276 84.8176 25.2493 85.5703 25.4868V20.677H88.759V37.8393H85.8264Z" fill="white"/>
  <path d="M97.7365 32.0224C97.393 32.0405 97.0369 32.0724 96.6746 32.113C96.3123 32.1568 95.9688 32.213 95.6409 32.2816C94.9475 32.419 94.4697 32.6533 94.2011 32.9875C93.9356 33.3248 93.8013 33.6871 93.8013 34.0838C93.8013 34.4929 93.9512 34.824 94.2542 35.0739C94.5571 35.3206 94.9819 35.4455 95.5347 35.4455C95.9501 35.4455 96.3529 35.3612 96.7402 35.1894C97.1275 35.0176 97.4617 34.8021 97.7365 34.546V32.0224ZM97.9926 37.8286L97.8677 36.9009C97.521 37.282 97.0838 37.5818 96.5497 37.7973C96.0156 38.0129 95.4316 38.1221 94.7945 38.1221C94.2604 38.1221 93.7451 38.0315 93.2579 37.8504C92.7644 37.6725 92.3303 37.4132 91.9524 37.079C91.5745 36.7448 91.2684 36.3356 91.0373 35.8453C90.8031 35.3549 90.6875 34.8021 90.6875 34.1837C90.6875 33.5684 90.8062 33.0218 91.0498 32.5502C91.2903 32.0786 91.6151 31.6819 92.0305 31.354C92.4427 31.0292 92.9174 30.7637 93.4515 30.5576C93.9825 30.3516 94.5446 30.1952 95.1287 30.0922C95.5409 30.0079 95.9938 29.9453 96.4841 29.9016C96.9745 29.8578 97.3836 29.8204 97.7115 29.786V29.6049C97.7115 28.9178 97.5366 28.4305 97.1806 28.1369C96.8277 27.8465 96.3405 27.6997 95.7221 27.6997C95.3598 27.6997 95.0131 27.7434 94.6852 27.8309C94.3572 27.9152 94.0668 28.0215 93.8076 28.1495C93.5483 28.2807 93.3203 28.4087 93.1205 28.5368C92.9237 28.6649 92.7644 28.7804 92.6426 28.8835L91.587 26.6472C91.7244 26.5255 91.9336 26.3817 92.2179 26.21C92.5021 26.0382 92.8425 25.8695 93.2485 25.7071C93.6514 25.5446 94.1042 25.4072 94.6102 25.2948C95.1162 25.1824 95.6627 25.1262 96.2436 25.1262C96.9307 25.1262 97.5585 25.2169 98.1238 25.3979C98.6891 25.579 99.1794 25.8602 99.5917 26.2474C100.001 26.6316 100.323 27.1189 100.557 27.7123C100.788 28.3026 100.903 29.0178 100.903 29.8579V37.8286H97.9926Z" fill="white"/>
  <path d="M110.761 23.5069C110.658 23.457 110.458 23.382 110.158 23.2882C109.855 23.1946 109.458 23.1477 108.959 23.1477C108.515 23.1477 108.141 23.2821 107.841 23.5475C107.541 23.8129 107.391 24.2471 107.391 24.8467V25.4371H110.068V28.0106H107.416V37.8396H104.224V28.0106H102.578V25.4371H104.224V24.7687C104.224 23.9629 104.327 23.282 104.533 22.7229C104.739 22.167 105.027 21.711 105.395 21.3612C105.764 21.0082 106.198 20.749 106.694 20.5866C107.194 20.4241 107.734 20.343 108.319 20.343C109.09 20.343 109.727 20.4148 110.233 20.5617C110.739 20.7085 111.036 20.8053 111.12 20.8584L110.761 23.5069Z" fill="white"/>
  <path d="M119.451 31.5736C119.451 31.0582 119.389 30.5679 119.27 30.1025C119.151 29.6371 118.97 29.2373 118.73 28.9032C118.489 28.5658 118.199 28.3003 117.855 28.1036C117.512 27.9037 117.109 27.8037 116.647 27.8037C116.184 27.8037 115.778 27.9037 115.438 28.1036C115.094 28.3003 114.801 28.5658 114.56 28.9032C114.323 29.2373 114.142 29.6371 114.02 30.1025C113.901 30.5679 113.842 31.0582 113.842 31.5736C113.842 32.1076 113.901 32.6042 114.02 33.0602C114.142 33.5162 114.317 33.916 114.548 34.2596C114.779 34.6031 115.072 34.8748 115.422 35.0747C115.775 35.2715 116.184 35.3714 116.647 35.3714C117.109 35.3714 117.512 35.2715 117.855 35.0747C118.199 34.8748 118.489 34.6031 118.73 34.2596C118.97 33.916 119.151 33.5162 119.27 33.0602C119.389 32.6042 119.451 32.1076 119.451 31.5736ZM122.59 31.5871C122.59 32.3961 122.465 33.1894 122.215 33.9702C121.968 34.751 121.6 35.4475 121.11 36.0659C120.622 36.6843 120.004 37.1809 119.258 37.5589C118.511 37.9368 117.64 38.1242 116.647 38.1242C115.65 38.1242 114.779 37.9367 114.036 37.5589C113.289 37.1809 112.671 36.6843 112.18 36.0659C111.693 35.4475 111.325 34.751 111.075 33.9702C110.825 33.1894 110.703 32.3961 110.703 31.5871C110.703 30.7814 110.825 29.9943 111.075 29.2197C111.325 28.4482 111.693 27.758 112.18 27.149C112.671 26.5399 113.289 26.0527 114.036 25.6842C114.779 25.3156 115.65 25.1282 116.647 25.1282C117.64 25.1282 118.508 25.3157 119.245 25.6842C119.982 26.0527 120.601 26.5399 121.097 27.149C121.597 27.758 121.968 28.4482 122.215 29.2197C122.465 29.9943 122.59 30.7814 122.59 31.5871Z" fill="white"/>
  <path d="M132.5 37.8426V30.7684C132.5 29.8251 132.303 29.0943 131.91 28.579C131.513 28.0667 130.967 27.8075 130.261 27.8075C129.764 27.8075 129.305 27.9355 128.887 28.1948C128.465 28.4509 128.1 28.7351 127.79 29.0443V37.8426H124.602V25.44H127.509L127.662 26.4177C128.162 26.0085 128.721 25.6899 129.349 25.4682C129.973 25.2433 130.604 25.134 131.238 25.134C131.891 25.134 132.491 25.2308 133.04 25.4276C133.59 25.6275 134.062 25.9398 134.455 26.3676C134.852 26.7955 135.155 27.3546 135.37 28.0386C135.583 28.7257 135.692 29.5503 135.692 30.5091V37.8426H132.5Z" fill="white"/>
  <path d="M145.619 30.1453C145.584 29.7174 145.494 29.3426 145.347 29.0272C145.2 28.7086 145.019 28.4525 144.804 28.2557C144.588 28.0558 144.357 27.9122 144.107 27.8154C143.854 27.7217 143.601 27.6748 143.342 27.6748C142.789 27.6748 142.264 27.8809 141.765 28.2933C141.265 28.7055 140.971 29.3208 140.884 30.1453H145.619ZM140.809 32.4347C140.878 33.481 141.203 34.2368 141.79 34.6991C142.374 35.1613 143.133 35.3955 144.06 35.3955C144.491 35.3955 144.897 35.355 145.275 35.28C145.653 35.202 145.99 35.105 146.284 34.9833C146.578 34.8645 146.827 34.7428 147.034 34.6241C147.24 34.5024 147.393 34.3898 147.499 34.2868L148.348 36.8884C148.227 36.9728 148.033 37.0884 147.768 37.2351C147.502 37.382 147.171 37.5163 146.777 37.6474C146.384 37.7755 145.919 37.8848 145.388 37.9816C144.857 38.0752 144.273 38.1221 143.639 38.1221C142.83 38.1221 142.065 37.9941 141.334 37.738C140.606 37.4787 139.966 37.079 139.419 36.5386C138.87 35.9983 138.432 35.3268 138.108 34.521C137.78 33.7152 137.617 32.7532 137.617 31.6382C137.617 30.5919 137.767 29.6643 138.067 28.8585C138.367 28.0527 138.779 27.3749 139.301 26.8252C139.825 26.2786 140.434 25.857 141.128 25.5634C141.824 25.273 142.564 25.1262 143.354 25.1262C144.145 25.1262 144.872 25.2574 145.544 25.5134C146.212 25.7695 146.79 26.1694 147.28 26.7097C147.768 27.25 148.155 27.9496 148.436 28.8085C148.72 29.6643 148.861 30.6856 148.861 31.8693V32.4346L140.809 32.4347Z" fill="white"/>
</svg>